<svg width="34" height="36" viewBox="0 0 34 36" fill="none" xmlns="http://www.w3.org/2000/svg">
<g id="Transport New T">
<path id="Background" d="M14.2698 35.301L2.72138 28.9097C1.89398 28.4518 1.2069 27.7931 0.729199 27C0.251497 26.2069 3.77853e-06 25.3072 0 24.3913V11.6087C3.77853e-06 10.6928 0.251497 9.79313 0.729199 9C1.2069 8.20686 1.89398 7.54823 2.72138 7.09031L14.2698 0.699004C15.0972 0.241079 16.0357 0 16.9911 0C17.9466 0 18.8851 0.241079 19.7125 0.699004L31.2609 7.09031C32.0883 7.54823 32.7754 8.20686 33.2531 9C33.7308 9.79313 33.9823 10.6928 33.9823 11.6087V24.3913C33.9823 25.3072 33.7308 26.2069 33.2531 27C32.7754 27.7931 32.0883 28.4518 31.2609 28.9097L19.7125 35.301C18.8851 35.7589 17.9466 36 16.9911 36C16.0357 36 15.0972 35.7589 14.2698 35.301Z" fill="#FF4E00" style="fill:#FF4E00;fill:color(display-p3 1.0000 0.3059 0.0000);fill-opacity:1;"/>
<path id="Arrow" d="M16.1623 7.03436L7.90841 12.2249C7.65642 12.3834 7.44716 12.6113 7.30167 12.8858C7.15618 13.1602 7.07959 13.4716 7.07959 13.7885V19.0255C7.07959 19.1066 7.0992 19.1863 7.13644 19.2566C7.17369 19.3268 7.22725 19.3852 7.29176 19.4257C7.35627 19.4663 7.42944 19.4877 7.50392 19.4877C7.57841 19.4877 7.65158 19.4663 7.71609 19.4258L14.1766 15.3631V29.1597C14.1766 29.3525 14.2469 29.5375 14.3721 29.6738C14.4973 29.8102 14.6671 29.8868 14.8441 29.8868H19.1379C19.315 29.8868 19.4848 29.8102 19.61 29.6738C19.7352 29.5375 19.8055 29.3525 19.8055 29.1597V15.3631L26.2661 19.4258C26.3306 19.4663 26.4038 19.4877 26.4783 19.4877C26.5527 19.4877 26.6259 19.4663 26.6904 19.4257C26.7549 19.3852 26.8085 19.3268 26.8457 19.2566C26.883 19.1863 26.9026 19.1066 26.9026 19.0255V13.7885C26.9026 13.4716 26.826 13.1602 26.6805 12.8858C26.535 12.6113 26.3258 12.3834 26.0738 12.2249L17.8199 7.03436C17.5679 6.8759 17.2821 6.79248 16.9911 6.79248C16.7002 6.79248 16.4143 6.8759 16.1623 7.03436Z" fill="white" style="fill:white;fill-opacity:1;"/>
</g>
</svg>
