<svg width="112" height="24" viewBox="0 0 112 24" fill="none" xmlns="http://www.w3.org/2000/svg">
<path d="M3.77699 3.81559H0.141602V0.726013H3.77699H6.9463H10.6749V3.81559H6.9463V23.08H3.77699V3.81559Z" fill="white" style="fill:white;fill-opacity:1;"/>
<path d="M13.5647 0.726013H18.5051C21.1151 0.726013 23.1659 2.81602 23.1659 5.26951V8.26822C23.1659 9.5404 22.6066 10.7217 21.7676 11.6304C22.3269 12.3574 22.6998 13.3569 22.6066 14.2656V23.1709H19.4372V14.2656C19.4372 13.5387 18.7847 12.9026 18.039 12.9026C18.039 12.9026 18.039 12.9026 17.9458 12.9026H16.734V23.1709H13.5647V0.726013ZM18.5051 9.72214C19.344 9.72214 19.9965 9.08605 19.9965 8.26822V5.36038C19.9965 4.54255 19.344 3.90646 18.5051 3.90646H16.734V9.81301L18.5051 9.72214Z" fill="white" style="fill:white;fill-opacity:1;"/>
<path d="M29.1312 0.816528H32.8598L36.5884 23.1705H33.3259L32.7666 19.5357H29.3177L28.6652 23.1705H25.4958L29.1312 0.816528ZM32.1141 16.4462L30.9023 9.17657L29.6905 16.4462H32.1141Z" fill="white" style="fill:white;fill-opacity:1;"/>
<path d="M47.1218 23.1709V23.08L42.3678 9.90388V23.3526H39.1985V0.726013H42.461L47.1218 13.7204V0.726013H50.2911V23.1709H47.5878L47.215 23.3526L47.1218 23.1709Z" fill="white" style="fill:white;fill-opacity:1;"/>
<path d="M54.0195 21.8978C53.0874 20.6256 53.1806 18.8991 53.1806 17.3543C54.2059 17.3543 55.2313 17.3543 56.3499 17.3543C56.1634 18.0812 56.0702 18.8082 56.2567 19.5352C56.4431 20.2621 57.0956 20.7165 57.9345 20.6256C58.4938 20.5347 58.8667 20.0804 59.0531 19.5352C59.1463 18.6265 59.0531 17.8086 58.8667 16.9908C58.6803 16.173 58.3074 15.446 57.8413 14.7191C57.1888 13.8104 56.4431 12.9017 55.6974 11.993C54.1127 10.0847 53.2738 7.72206 53.2738 5.26857C53.2738 2.17899 54.8584 0.543335 57.7481 0.543335C60.6378 0.543335 62.2224 2.17899 62.2224 5.26857V5.99553H59.1463V5.08683C59.1463 3.99639 58.7735 3.45117 57.8413 3.45117C57.0024 3.45117 56.5363 3.99639 56.5363 5.08683C56.5363 6.72249 57.0024 8.26728 57.9345 9.63033L58.9599 10.8116C61.0106 12.9925 62.2224 15.8095 62.2224 18.8082C62.3156 20.1712 61.8496 21.6252 60.8242 22.5339C59.892 23.2608 58.7735 23.6243 57.5617 23.5334C56.1634 23.6243 54.8584 22.9882 54.0195 21.8978Z" fill="white" style="fill:white;fill-opacity:1;"/>
<path d="M65.2056 0.726013H70.146C72.756 0.726013 74.8067 2.81602 74.8067 5.26951V8.26822C74.8067 10.8126 72.6628 12.8117 70.146 12.8117H68.3749V23.1709H65.2056V0.726013ZM70.146 9.72214C70.9849 9.72214 71.6374 9.08605 71.6374 8.26822V5.36038C71.6374 4.54255 70.9849 3.90646 70.146 3.90646H68.3749V9.81301L70.146 9.72214Z" fill="white" style="fill:white;fill-opacity:1;"/>
<path d="M77.7896 18.8994V4.99632C77.7896 2.45196 79.8403 0.45282 82.4503 0.45282C85.0603 0.45282 87.1111 2.45196 87.1111 4.99632V18.8994C87.1111 21.4438 85.0603 23.4429 82.4503 23.4429C79.8403 23.4429 77.7896 21.4438 77.7896 18.8994ZM83.9417 18.8994V4.99632C83.9417 4.17849 83.2892 3.5424 82.4503 3.5424C81.6114 3.5424 80.9589 4.17849 80.9589 4.99632V18.8994C80.9589 19.7173 81.6114 20.3533 82.4503 20.3533C83.2892 20.3533 83.9417 19.7173 83.9417 18.8994Z" fill="white" style="fill:white;fill-opacity:1;"/>
<path d="M90.0012 0.726013H94.9416C97.5516 0.726013 99.6024 2.81602 99.6024 5.26951V8.26822C99.6024 9.5404 99.0431 10.7217 98.2041 11.6304C98.7634 12.3574 99.1363 13.3569 99.0431 14.2656V23.1709H95.8738V14.2656C95.8738 13.5387 95.2213 12.9026 94.4755 12.9026C94.4755 12.9026 94.4755 12.9026 94.3823 12.9026H93.1705V23.1709H90.0012V0.726013ZM94.9416 9.72214C95.7806 9.72214 96.4331 9.08605 96.4331 8.26822V5.36038C96.4331 4.54255 95.7806 3.90646 94.9416 3.90646H93.1705V9.81301L94.9416 9.72214Z" fill="white" style="fill:white;fill-opacity:1;"/>
<path d="M105.102 3.81559H101.467V0.726013H105.102H108.272H112V3.81559H108.272V23.08H105.102V3.81559Z" fill="white" style="fill:white;fill-opacity:1;"/>
</svg>
